<svg xmlns="http://www.w3.org/2000/svg" viewBox="0 0 64 64" role="img" aria-label="MyBlog favicon">
  <rect width="64" height="64" rx="14" fill="#000"/>
  <path d="M8 15c8 0 10 12 18 12s10-12 18-12 10 12 18 12" fill="none" stroke="#6f6f6f" stroke-width="1.6" stroke-linecap="round"/>
  <path d="M6 24c7 0 11 18 18 18s11-18 18-18 11 18 18 18" fill="none" stroke="#757575" stroke-width="1.4" stroke-linecap="round"/>
  <path d="M6 35c8 0 12 14 20 14s12-14 20-14 12 14 20 14" fill="none" stroke="#737373" stroke-width="1.5" stroke-linecap="round"/>
  <path d="M10 48c7 0 11-9 18-9s11 9 18 9 11-9 18-9" fill="none" stroke="#808080" stroke-width="1.3" stroke-linecap="round"/>
</svg>